<mxfile host="app.diagrams.net" modified="2024-04-09T08:15:41.433Z" agent="Mozilla/5.0 (Windows NT 10.0; Win64; x64) AppleWebKit/537.36 (KHTML, like Gecko) Chrome/123.0.0.0 Safari/537.36" version="24.2.1" etag="_lSTsxEY2iSJCGecyIEy" type="github">
  <diagram name="Page-1" id="4QDTwvdaZps2GfIds7GK">
    <mxGraphModel>
      <root>
        <mxCell id="0" />
        <mxCell id="1" parent="0" />
      </root>
    </mxGraphModel>
  </diagram>
</mxfile>
